<svg version="1.1" id="Layer_1" xmlns="http://www.w3.org/2000/svg" xmlns:xlink="http://www.w3.org/1999/xlink" x="0px" y="0px"
	 width="100%" viewBox="0 0 256 240" enable-background="new 0 0 256 240" xml:space="preserve">
<path fill="#000000" opacity="1.000000" stroke="none" 
	d="
M244.258545,145.950134 
	C233.957245,188.632538 207.670273,216.292740 166.706329,229.628494 
	C104.892990,249.751740 37.851833,214.616058 20.388865,153.559402 
	C6.254431,104.140480 30.420921,50.779301 77.575813,27.286894 
	C128.029678,2.150950 187.594467,14.513694 222.867004,58.277088 
	C243.411377,83.766914 250.376190,113.197083 244.258545,145.950134 
M201.500000,163.148865 
	C185.176117,163.148865 168.852249,163.148865 152.528366,163.148865 
	C152.469681,163.618225 152.411011,164.087585 152.352325,164.556946 
	C155.575989,166.227356 158.813431,167.871841 162.019913,169.574615 
	C166.207184,171.798264 170.350586,176.416534 174.906815,167.793701 
	C177.407700,176.694733 179.361496,183.983109 181.526367,191.208237 
	C182.560287,194.658936 181.045532,195.844223 177.960251,196.028442 
	C172.146530,196.375656 166.304108,196.014221 160.508255,196.974747 
	C157.935715,197.401062 156.182114,195.899429 157.781738,193.514236 
	C161.039398,188.656738 158.213074,186.338608 154.677200,183.876556 
	C153.188629,182.840057 152.044174,181.322968 150.618851,180.179459 
	C146.184708,176.622040 141.691010,173.138885 137.220413,169.626907 
	C136.891815,176.294373 137.781311,182.183884 138.260193,188.106567 
	C139.027252,197.593658 138.913742,197.598221 147.360748,200.292389 
	C147.603394,200.369797 147.733795,200.799088 148.204453,201.482132 
	C145.015564,209.033585 138.632294,214.178116 132.770050,219.719193 
	C131.861481,220.577957 130.524689,220.340210 129.577377,219.416962 
	C124.227188,214.202545 120.097847,208.092575 115.032555,200.960434 
	C123.332451,201.195908 123.945320,196.174484 124.750969,191.057556 
	C125.836823,184.160980 127.282768,177.321732 128.444656,170.436020 
	C128.695679,168.948349 129.527328,167.153748 127.276299,165.644730 
	C120.628693,171.273956 113.917732,176.951401 107.212967,182.636124 
	C101.611893,187.385086 101.615097,187.388870 101.565781,193.716446 
	C95.647842,195.390915 89.512215,195.740341 83.394371,196.188492 
	C79.877762,196.446121 78.537582,195.053421 79.391289,191.385925 
	C80.671600,185.885773 81.598930,180.304001 82.716454,174.765030 
	C83.009109,173.314438 83.286827,171.783600 84.985924,171.264618 
	C86.787354,171.430969 87.460358,172.900467 88.410225,174.006866 
	C89.315231,175.061005 90.264648,176.118088 91.784096,175.304047 
	C97.957321,171.996796 103.884224,168.319794 109.852295,163.701233 
	C84.611877,163.701233 60.244888,163.701233 35.699707,163.701233 
	C45.034351,191.427887 83.276047,226.998871 135.557144,225.076492 
	C182.085312,223.365616 218.552200,190.367233 227.041443,163.147430 
	C218.712769,163.147430 210.606384,163.147430 201.500000,163.148865 
M41.649979,73.108498 
	C21.726034,102.742928 24.813583,145.219299 33.625401,156.576233 
	C64.684265,113.094955 95.644241,69.752121 126.865646,26.043295 
	C103.153580,20.243534 60.541977,44.057835 41.649979,73.108498 
M139.701538,31.845270 
	C169.627380,73.352058 199.553238,114.858849 229.759384,156.754395 
	C240.214172,134.517258 239.136581,94.136650 214.742142,63.907845 
	C195.724899,40.342274 154.155106,20.085609 135.518356,25.926516 
	C136.810638,27.756493 138.050262,29.511908 139.701538,31.845270 
M101.107040,80.549538 
	C98.642036,83.904633 96.137001,87.231468 93.737000,90.632439 
	C93.038536,91.622223 91.425148,92.702133 92.710312,94.053963 
	C94.687080,96.133286 94.205254,98.734093 94.649887,101.122589 
	C95.374802,105.016693 96.840141,108.519524 99.926498,111.059853 
	C104.440308,114.775085 109.639969,117.612419 113.649078,122.664085 
	C114.707146,117.173347 112.684036,113.797569 109.342674,110.863327 
	C104.409966,106.531616 100.953888,101.282578 100.838699,94.516197 
	C100.757553,89.749443 103.499092,85.467049 103.988922,80.379265 
	C108.057747,85.638626 107.871582,93.046165 113.775352,97.327530 
	C119.197990,101.259987 123.084335,106.890366 125.499443,113.644196 
	C128.803101,108.941269 127.260109,105.475334 124.313835,102.283150 
	C122.507431,100.325966 120.467964,98.576813 118.732780,96.562302 
	C113.513779,90.503159 112.701347,81.395737 116.823654,74.632805 
	C118.244637,72.301590 119.856361,69.769753 123.412247,71.483803 
	C120.423836,79.364754 124.658066,89.914040 132.261246,93.198082 
	C133.843643,88.072090 132.118866,83.717514 129.571228,79.546715 
	C127.028137,75.383331 125.496407,71.101662 127.752930,66.326767 
	C129.434952,62.767529 131.248993,59.267178 129.788712,54.600826 
	C134.127960,56.082703 134.026138,59.191208 134.113159,62.051537 
	C134.178848,64.209839 133.562698,66.623917 135.215973,68.265404 
	C138.824707,71.848419 141.684830,75.983116 144.422104,80.697487 
	C145.471588,77.642014 143.300079,74.485054 146.456863,72.269318 
	C149.067093,77.371826 152.683289,81.580223 153.723022,86.951729 
	C155.397202,87.379631 156.855408,85.571915 158.185379,87.163185 
	C157.765793,93.655609 157.872620,93.827919 162.697662,94.595543 
	C163.319077,97.224899 163.789551,99.850990 164.565506,102.383484 
	C167.229736,111.078705 165.396957,118.485405 158.425018,124.449738 
	C155.328339,127.098862 154.675064,130.109924 156.460007,133.797119 
	C159.579803,140.241745 158.310593,145.725632 152.676666,150.210510 
	C152.136688,150.640366 151.239777,151.086685 151.703217,152.674072 
	C171.630295,151.560410 191.700394,152.531570 213.261581,152.153336 
	C185.728256,113.819504 158.900986,76.468666 131.388748,38.164177 
	C120.993980,52.697704 111.247124,66.325356 101.107040,80.549538 
M100.807480,128.030914 
	C100.086075,125.877197 98.462006,124.452766 96.822540,123.019180 
	C90.064285,117.109642 87.670540,109.805435 89.846886,101.047112 
	C90.214516,99.567665 91.151451,98.092751 90.007408,95.781097 
	C76.479088,114.639305 63.304401,133.004547 49.873497,151.726959 
	C55.118473,152.889450 106.935539,152.867752 112.474991,151.749847 
	C103.945511,146.059326 101.273575,137.971512 100.807480,128.030914 
M152.007614,144.339142 
	C154.020386,140.919266 154.502914,137.368362 153.112793,132.472549 
	C151.264328,136.815842 150.423096,140.507202 147.242371,142.723007 
	C146.279617,143.393692 145.210724,144.124191 144.069870,143.239883 
	C142.911453,142.341980 143.378403,141.149628 143.849838,140.057114 
	C144.672821,138.149994 146.475342,136.487762 145.331589,134.055313 
	C143.848145,132.745209 140.863129,134.745346 140.208832,132.075409 
	C139.530975,129.309326 142.286484,128.601440 143.883743,127.360001 
	C149.357224,123.105835 152.498749,117.036148 157.042252,111.625137 
	C152.680099,111.372093 151.177200,114.488068 149.273453,116.709015 
	C146.534180,119.904724 143.906052,121.093880 140.099869,117.412033 
	C144.103577,111.091423 146.232147,103.963371 146.667938,96.294106 
	C144.503784,100.651733 141.196381,104.629852 138.006195,107.566292 
	C133.412155,111.794914 130.737915,116.382568 129.183243,121.968781 
	C127.114204,129.403183 124.868484,136.711044 118.989197,142.155609 
	C116.914970,144.076477 118.082077,145.748749 118.944542,147.502960 
	C119.843292,149.330948 121.291100,149.658630 123.109871,148.827454 
	C125.545769,147.714264 127.819084,147.802002 130.174683,149.345963 
	C138.842972,155.027542 145.669708,153.601456 152.007614,144.339142 
M108.023079,128.294342 
	C107.459236,126.823112 108.377457,124.538879 105.814911,123.990005 
	C103.982773,132.204636 106.506142,141.000839 111.937904,144.401825 
	C109.954170,137.826614 115.113220,131.227570 110.609467,125.040054 
	C109.929100,127.110985 112.289101,129.626633 109.725990,131.405029 
	C108.483429,130.986923 108.612541,129.825134 108.023079,128.294342 
M139.158585,97.258888 
	C139.653931,95.522469 140.149261,93.786057 140.692596,91.881378 
	C139.874695,91.999306 139.169861,92.100929 137.840668,92.292572 
	C139.147995,89.457870 137.819763,87.465706 135.830444,84.844513 
	C136.562576,88.942841 136.422501,92.297371 135.372742,95.605843 
	C134.878677,97.162987 135.432541,98.690376 136.926682,99.413742 
	C138.232559,100.045967 138.452957,98.649498 139.158585,97.258888 
M152.261337,103.407143 
	C153.717453,100.472153 154.289566,97.439133 153.287003,93.107018 
	C151.994339,98.664558 149.053970,102.586952 148.843246,108.337257 
	C150.214966,106.400803 151.057922,105.210815 152.261337,103.407143 
M120.133835,116.549911 
	C118.543541,109.456100 115.754807,105.580048 110.669624,103.926506 
	C111.719421,106.641090 113.794769,108.064903 115.501678,109.691467 
	C117.496597,111.592476 118.536598,114.001785 120.133835,116.549911 
M154.936188,123.290901 
	C160.548859,118.006950 162.497665,114.147781 162.099792,109.104988 
	C160.227402,115.475357 160.222900,115.471550 155.250671,121.362648 
	C154.731384,121.977921 154.305267,122.671844 153.835922,123.329277 
	C154.080307,123.417038 154.324692,123.504799 154.936188,123.290901 
z"/>
</svg>